<?xml version="1.0" encoding="UTF-8"?>
<svg id="Capa_1" data-name="Capa 1" xmlns="http://www.w3.org/2000/svg" viewBox="0 0 77.15 25.62">
  <defs>
    <style>
      .cls-1 {
        fill: #1568b1;
      }

      .cls-2 {
        fill: #ea5047;
      }

      .cls-3 {
        fill: #4f4e50;
      }
    </style>
  </defs>
  <path class="cls-1" d="M39.28,23.01h-.01c.71.25.9.82.87,1.46-.01.47-.15,1.05.41,1.05.2,0,.4-.08.4-.25,0-.29-.36-.28-.36-.71,0-.3.22-.63.66-.63.34,0,.69.24.69.69,0,.66-.71,1.01-1.39,1.01-1.03,0-1.86-.52-1.84-1.61,0-.5.04-.88-.33-.88-.23,0-.42.19-.55.49-.04.08-.07.11-.13.1-.07-.02-.07-.08-.03-.14.16-.32.36-.51.7-.6h0c-1.8-.31-2.8-1.93-2.8-3.84,0-2.16,1.1-3.94,3.37-3.94s3.41,1.76,3.41,3.88c0,2.07-1,3.77-3.05,3.93M40.37,17.5c-.08-1.11-.23-2.17-1.4-2.17-1.27,0-1.39,1.04-1.46,2.24-.05,1.09-.07,2.1.01,3.16.07,1.11.24,2.17,1.39,2.17,1.28,0,1.4-1.04,1.46-2.25.06-1.09.07-2.1,0-3.16"/>
  <path class="cls-1" d="M50.15,15.46h-.03c-.52,0-.67.48-.67,2.41v2.76c0,1.61-.74,2.39-2.62,2.39s-2.89-1.01-2.89-2.1v-5.01c0-.35-.01-.45-.12-.45h-.44c-.09,0-.11-.02-.11-.07,0-.03.02-.07.11-.07h2.8c.09,0,.1.03.1.07,0,.04-.01.07-.1.07h-.51c-.11,0-.12.1-.12.45v5.4c0,1.02.62,1.53,1.6,1.53,1.71,0,2.16-.88,2.16-2.27v-2.63c0-1.9-.3-2.48-1.03-2.48h-.11c-.08,0-.09-.02-.09-.07,0-.03.01-.07.09-.07h1.98c.08,0,.09.03.09.07,0,.04,0,.07-.09.07"/>
  <path class="cls-1" d="M56.5,20.32v2.49c0,.06-.03.07-.09.07h-5.57c-.07,0-.1-.02-.1-.07s.02-.07.1-.07h.45c.11,0,.12-.1.12-.44v-6.42c0-.34-.01-.44-.12-.44h-.45c-.07,0-.1-.02-.1-.07s.02-.07.1-.07h5.21c.05,0,.09.02.09.08v2.41c0,.08-.03.1-.08.1-.04,0-.07-.02-.07-.1v-.12c0-1.09-.72-2.25-1.91-2.25h-.96c-.06,0-.11.02-.11.06v3.28s.02.07.09.07h.5c.65,0,1.24-.52,1.24-1.16v-.08c0-.08.03-.11.07-.11.04,0,.06.03.06.11v2.59c0,.07-.02.1-.06.1-.05,0-.07-.02-.07-.1v-.08c0-.64-.59-1.17-1.24-1.17h-.49c-.07,0-.11.02-.11.07v3.64s.02.06.09.06h.89c1.75,0,2.35-1.61,2.35-2.33v-.11c0-.07.03-.1.07-.1s.08.04.08.11"/>
  <path class="cls-1" d="M61.08,22.89h-3.69c-.07,0-.1-.02-.1-.07s.02-.07.1-.07h.45c.11,0,.12-.1.12-.44v-6.42c0-.34-.01-.44-.12-.44h-.45c-.07,0-.1-.02-.1-.07s.02-.07.1-.07h3.34c1.12,0,2.41.42,2.41,1.85,0,1.21-1.22,1.67-1.98,1.73h0c1.06.01,2.29.59,2.29,1.98,0,1.12-.78,2-2.37,2M60.6,15.46h-.92c-.06,0-.11.02-.11.06v3.28s.02.07.09.07h.94c.64,0,.95-.43.95-1.68,0-1.25-.37-1.72-.96-1.72M60.69,18.99h-1.02c-.07,0-.11.03-.11.07v3.65s.03.06.09.06h.97c.75,0,1.05-.46,1.05-1.88,0-1.59-.51-1.9-.99-1.9"/>
  <path class="cls-1" d="M70.02,20.32v2.49c0,.06-.03.07-.09.07h-5.57c-.07,0-.1-.02-.1-.07s.02-.07.1-.07h.45c.11,0,.12-.1.12-.44v-6.42c0-.34-.01-.44-.12-.44h-.45c-.07,0-.1-.02-.1-.07s.02-.07.1-.07h5.21c.05,0,.09.02.09.08v2.41c0,.08-.03.1-.08.1-.04,0-.07-.02-.07-.1v-.12c0-1.09-.72-2.25-1.91-2.25h-.96c-.06,0-.11.02-.11.06v3.28s.02.07.09.07h.5c.65,0,1.24-.52,1.24-1.16v-.08c0-.08.03-.11.07-.11.04,0,.06.03.06.11v2.59c0,.07-.02.1-.06.1-.05,0-.07-.02-.07-.1v-.08c0-.64-.59-1.17-1.24-1.17h-.49c-.07,0-.11.02-.11.07v3.64s.02.06.09.06h.89c1.75,0,2.35-1.61,2.35-2.33v-.11c0-.07.03-.1.07-.1.05.01.08.04.08.11"/>
  <path class="cls-1" d="M71.17,19.17c0-2.19,1.11-3.96,3.36-3.96.6,0,1.22.17,1.52.28.27.1.56.24.56,0v-.08c0-.07.02-.11.07-.11s.07.02.07.11v2.64c0,.08-.03.11-.07.11-.06,0-.07-.03-.07-.11v-.13c0-1.63-1.02-2.6-2.07-2.6-1.15,0-1.35.88-1.41,2.25-.04,1.09-.07,2.1.01,3.16.07,1.15.23,2.17,1.5,2.17,1.37,0,2.36-1.21,2.36-2.74v-.19c0-.08.02-.11.07-.11.04,0,.07.03.07.11v2.85c0,.08-.03.11-.09.11-.05,0-.07-.03-.07-.11v-.08c0-.24-.29-.12-.61-.01-.54.19-1.28.29-1.84.29-2.22,0-3.37-1.91-3.37-3.85"/>
  <path class="cls-2" d="M32.86,22.89c-.84,0-1.52-.62-1.52-1.44s.68-1.46,1.52-1.46,1.48.64,1.48,1.46-.66,1.44-1.48,1.44"/>
  <path class="cls-1" d="M52.8,14.26l1.75-.72c.74-.29,1.06-.44,1.35-.16.19.19.19.53,0,.73-.23.22-.6.2-1.2.21l-1.86.09c-.12,0-.14-.01-.15-.06,0-.04.01-.05.12-.1"/>
  <path class="cls-3" d="M0,8.81c0-2.14,1.18-4.48,4.58-4.48,1.56,0,3.3.76,3.3,2.26,0,.8-.58,1.3-1.3,1.3-.66,0-1.28-.46-1.28-1.24,0-.86.68-.98.68-1.42s-.52-.68-1.28-.68c-1.28,0-1.5.84-1.62,2.16-.1,1.16-.1,2.66-.02,3.84.1,1.18.52,2.4,1.98,2.4,1.24,0,2.7-1,2.7-2.92,0-.24.02-.32.18-.32.12,0,.16.08.16.22,0,1.56-.98,3.3-3.48,3.3-3.18,0-4.6-2.02-4.6-4.42"/>
  <path class="cls-3" d="M13.56,12.99h-4.82c-.14,0-.18-.02-.18-.1s.04-.12.18-.12h.76c.18,0,.2-.14.2-.76v-6.48c0-.62-.02-.74-.2-.74h-.76c-.14,0-.18-.04-.18-.12s.04-.1.18-.1h3.4c.14,0,.18.04.18.1v.88h.04c.38-.72,1.06-1.22,2.02-1.22.84,0,1.9.58,1.9,1.68,0,.88-.62,1.36-1.34,1.36-.66,0-1.3-.44-1.3-1.2s.66-.82.66-1.24c0-.22-.18-.34-.38-.34-.7,0-1.56.76-1.56,1.78v5.64c0,.62.02.76.2.76h1c.14,0,.18.04.18.12s-.06.1-.18.1"/>
  <path class="cls-3" d="M16.66,8.81c0-2.3,1.36-4.48,4.46-4.48,2.36,0,4.04,1.26,4.04,3.06,0,.6-.18.78-.62.78h-4.72c-.08,0-.16,0-.16.12,0,.7.02,1.54.06,2.26.1,1.2.54,2.42,2.12,2.42,1.7,0,3.08-1.1,3.08-2.94,0-.24.02-.32.18-.32.12,0,.16.08.16.22,0,1.56-1.02,3.3-3.8,3.3-3.22,0-4.8-1.88-4.8-4.42M21.1,4.55c-1.02,0-1.28.92-1.38,2.12-.02.4-.02.8-.02,1.12,0,.14.06.12.12.12h2.48c.06,0,.16-.04.16-.16,0-.54-.04-1.16-.12-1.74-.15-.88-.51-1.46-1.24-1.46"/>
  <path class="cls-3" d="M35.43,12.37c-.14.42-.66.86-1.88.86-1.12,0-1.8-.42-1.98-1.12h-.02c-.48.78-1.18,1.12-2.5,1.12-1.6,0-2.76-.82-2.76-2.22,0-1.26.74-1.94,2-2.2.7-.16,1.64-.38,2.2-.56.7-.26,1-.42,1-.86v-1.42c0-1.26-.64-1.44-1.36-1.44-1.3,0-1.6.42-1.6.7,0,.46.64.5.64,1.24,0,.66-.56,1.06-1.22,1.06s-1.18-.46-1.18-1.14c0-1.22,1.54-2.06,3.44-2.06,2.4,0,3.96,1.04,3.96,2.94v5c0,.3.08.54.38.54.24,0,.52-.18.66-.5.02-.08.06-.1.14-.1.07.01.1.08.07.15M31.49,11.41v-3.4c-1.6.72-2.3.9-2.36,2.36-.02.48-.02,1.18,0,1.58.04.46.2.96.88.96.76,0,1.48-.75,1.48-1.51"/>
  <path class="cls-3" d="M36.45,10.91v-5.96c0-.06-.04-.14-.2-.14h-.6c-.16,0-.2-.04-.2-.12s.06-.12.2-.12h.6c.16,0,.2-.06.2-.12v-1.86c0-.14.06-.2.18-.26,1.02-.26,1.84-.76,2.2-1.28.04-.08.08-.12.18-.12.08,0,.12.04.12.16v3.36c0,.06.04.12.2.12h1.38c.16,0,.2.04.2.12s-.06.12-.2.12h-1.38c-.16,0-.2.08-.2.14v6.72c0,.84.12,1.24.74,1.24.54,0,.98-.44.98-1.24,0-.2-.02-.32.14-.32.1,0,.16.04.16.2,0,1.26-.78,1.68-2.1,1.68-1.56,0-2.6-.94-2.6-2.32"/>
  <path class="cls-3" d="M46.84,12.99h-4.6c-.14,0-.18-.02-.18-.1s.04-.12.18-.12h.76c.18,0,.2-.14.2-.76v-6.48c0-.62-.02-.74-.2-.74h-.76c-.14,0-.18-.04-.18-.12s.04-.1.18-.1h3.46c.14,0,.16.04.16.1v7.34c0,.62.02.76.2.76h.78c.14,0,.18.04.18.12s-.06.1-.18.1M44.52,2.9c-.84,0-1.52-.62-1.52-1.44s.68-1.46,1.52-1.46,1.48.64,1.48,1.46-.66,1.44-1.48,1.44"/>
  <path class="cls-3" d="M56.13,4.8c-.58,0-.72.42-1,1.12-.2.5-.42,1.18-.58,1.62l-1.88,5.5c-.02.08-.08.12-.18.12h-1.46c-.08,0-.14-.04-.18-.12l-2.74-7.46c-.24-.68-.34-.78-.56-.78h-.22c-.14,0-.18-.04-.18-.12s.04-.1.18-.1h4.3c.12,0,.16.02.16.1,0,.08-.04.12-.16.12h-.6c-.24,0-.34.12-.12.76l2.04,5.88h.04l1.28-3.84c.2-.56.38-1.32.38-1.88,0-.62-.3-.92-.84-.92h-.32c-.12,0-.16-.04-.16-.12s.04-.1.16-.1h2.64c.12,0,.16.02.16.1,0,.08-.04.12-.16.12"/>
  <path class="cls-3" d="M62.13,12.99h-4.6c-.14,0-.18-.02-.18-.1s.04-.12.18-.12h.76c.18,0,.2-.14.2-.76v-6.48c0-.62-.02-.74-.2-.74h-.76c-.14,0-.18-.04-.18-.12s.04-.1.18-.1h3.46c.14,0,.16.04.16.1v7.34c0,.62.02.76.2.76h.78c.14,0,.18.04.18.12s-.06.1-.18.1"/>
  <path class="cls-3" d="M63.67,10.91v-5.96c0-.06-.04-.14-.2-.14h-.6c-.16,0-.2-.04-.2-.12s.06-.12.2-.12h.6c.16,0,.2-.06.2-.12v-1.86c0-.14.06-.2.18-.26,1.02-.26,1.84-.76,2.2-1.28.04-.08.08-.12.18-.12.08,0,.12.04.12.16v3.36c0,.06.04.12.2.12h1.38c.16,0,.2.04.2.12s-.06.12-.2.12h-1.38c-.16,0-.2.08-.2.14v6.72c0,.84.12,1.24.74,1.24.54,0,.98-.44.98-1.24,0-.2-.02-.32.14-.32.1,0,.16.04.16.2,0,1.26-.78,1.68-2.1,1.68-1.56,0-2.6-.94-2.6-2.32"/>
  <path class="cls-3" d="M68.55,8.81c0-2.3,1.36-4.48,4.46-4.48,2.36,0,4.04,1.26,4.04,3.06,0,.6-.18.78-.62.78h-4.72c-.08,0-.16,0-.16.12,0,.7.02,1.54.06,2.26.1,1.2.54,2.42,2.12,2.42,1.7,0,3.08-1.1,3.08-2.94,0-.24.02-.32.18-.32.12,0,.16.08.16.22,0,1.56-1.02,3.3-3.8,3.3-3.22,0-4.8-1.88-4.8-4.42M72.99,4.55c-1.02,0-1.28.92-1.38,2.12-.02.4-.02.8-.02,1.12,0,.14.06.12.12.12h2.48c.06,0,.16-.04.16-.16,0-.54-.04-1.16-.12-1.74-.15-.88-.51-1.46-1.24-1.46"/>
  <path class="cls-3" d="M19.88,3.05l2.72-1.11c1.15-.45,1.65-.69,2.08-.24.29.3.3.82-.01,1.13-.36.35-.92.32-1.86.33l-2.89.14c-.18.01-.21-.02-.22-.09,0-.06.02-.08.18-.15"/>
  <path class="cls-3" d="M71.84,3.04l2.72-1.11c1.15-.45,1.65-.69,2.08-.24.29.3.3.82-.02,1.13-.35.35-.92.32-1.86.33l-2.89.14c-.18.01-.21-.02-.22-.09,0-.06.03-.09.18-.15"/>
  <path class="cls-2" d="M59.81,2.9c-.84,0-1.52-.62-1.52-1.44s.68-1.46,1.52-1.46,1.48.64,1.48,1.46-.66,1.44-1.48,1.44"/>
</svg>